<svg xmlns="http://www.w3.org/2000/svg" xmlns:xlink="http://www.w3.org/1999/xlink" viewBox="0 0 102.81 85"><defs><linearGradient id="linear-gradient" x1="47.78" y1="27.9" x2="52.17" y2="2.22" gradientUnits="userSpaceOnUse"><stop offset="0"/><stop offset="0.96" stop-color="#fff" stop-opacity="0"/></linearGradient><linearGradient id="linear-gradient-2" x1="62.51" y1="49.53" x2="96.23" y2="32.77" gradientUnits="userSpaceOnUse"><stop offset="0"/><stop offset="0.96" stop-color="#fff" stop-opacity="0"/></linearGradient></defs><g id="Layer_2" data-name="Layer 2"><g id="Layer_1-2" data-name="Layer 1"><path d="M91.69,74.34l-1.57-6.49L78,17.49q-.09-.37-.21-.72a2,2,0,0,0-.08-.22,1.66,1.66,0,0,0-.12-.31.47.47,0,0,0-.06-.15l0-.11a1.23,1.23,0,0,0-.12-.26.05.05,0,0,0,0-.05c-.07-.15-.15-.3-.23-.44a4.64,4.64,0,0,0-.25-.42l-.15-.22a1.88,1.88,0,0,0-.18-.24,2.37,2.37,0,0,0-.23-.3.08.08,0,0,0,0,0A1.68,1.68,0,0,0,76,13.8s0,0,0,0l-.11-.12-.2-.2a.08.08,0,0,0,0,0c-.1-.11-.21-.21-.32-.31l0,0c-.18-.16-.36-.31-.55-.45s-.37-.27-.56-.39l-.3-.18-.3-.16c-.2-.11-.4-.21-.61-.3l-.56-.22h-.09c-.21-.07-.44-.14-.66-.19a8.65,8.65,0,0,0-1.35-.23c-.24,0-.49,0-.74,0H8.64a8.62,8.62,0,0,0-6.79,3.3,8.54,8.54,0,0,0-1.6,7.37L14,78.4A8.6,8.6,0,0,0,22.39,85H83.32a8.62,8.62,0,0,0,8.37-10.66ZM36.39,71A8.6,8.6,0,0,1,28,64.38L15.82,14H69.57a5.49,5.49,0,0,1,5.33,4.2L87.66,71Z" style="fill:#fff"/><path d="M99.19,67.52a5.29,5.29,0,0,1-1.89.33H90.12L78,17.49q-.09-.37-.21-.72a2,2,0,0,0-.08-.22,1.66,1.66,0,0,0-.12-.31.47.47,0,0,0-.06-.15l0-.11a1.23,1.23,0,0,0-.12-.26.05.05,0,0,0,0-.05,2.64,2.64,0,0,0-.23-.44,4.64,4.64,0,0,0-.25-.42l-.15-.22a1.88,1.88,0,0,0-.18-.24,2.37,2.37,0,0,0-.23-.3.08.08,0,0,0,0,0A1.68,1.68,0,0,0,76,13.8s0,0,0,0l-.11-.12-.2-.2a.08.08,0,0,0,0,0,1.88,1.88,0,0,0-.32-.31l0,0a3.87,3.87,0,0,0-.55-.45,5.12,5.12,0,0,0-.56-.39l-.3-.18a1.43,1.43,0,0,0-.3-.16,3.83,3.83,0,0,0-.61-.3l-.56-.22h-.09c-.21-.07-.44-.14-.66-.19a8.65,8.65,0,0,0-1.35-.23c-.24,0-.49,0-.74,0H18.28l-1-4.09a.9.9,0,0,1,0-.16A5.48,5.48,0,0,1,22.64,0H83.57a5.39,5.39,0,0,1,2.2.47,5.86,5.86,0,0,1,.78.42l.36.26.35.29a4.81,4.81,0,0,1,.65.7c.09.12.18.24.26.37A5.55,5.55,0,0,1,88.9,4.2l13.75,56.86A5.5,5.5,0,0,1,99.19,67.52Z" style="fill:#fff"/><path d="M86.91,1.15,74.74,12.61c-.18-.14-.37-.27-.56-.39l-.3-.18-.3-.16c-.2-.11-.4-.21-.61-.3l-.56-.22h-.09c-.21-.07-.44-.14-.66-.19a8.65,8.65,0,0,0-1.35-.23c-.24,0-.49,0-.74,0H18.28l-1-4.09a.9.9,0,0,1,0-.16A5.48,5.48,0,0,1,22.64,0H83.57a5.39,5.39,0,0,1,2.2.47,5.86,5.86,0,0,1,.78.42Z" style="fill:url(#linear-gradient)"/><path d="M99.19,67.52a5.29,5.29,0,0,1-1.89.33H90.12L78,17.49q-.09-.37-.21-.72a2,2,0,0,0-.08-.22,1.66,1.66,0,0,0-.12-.31.47.47,0,0,0-.06-.15l0-.11a1.23,1.23,0,0,0-.12-.26.05.05,0,0,0,0-.05,2.64,2.64,0,0,0-.23-.44,4.64,4.64,0,0,0-.25-.42l-.15-.22a1.88,1.88,0,0,0-.18-.24,2.37,2.37,0,0,0-.23-.3.08.08,0,0,0,0,0A1.68,1.68,0,0,0,76,13.8s0,0,0,0l-.11-.12-.2-.2a.08.08,0,0,0,0,0c-.1-.11-.21-.21-.32-.31l0,0c-.18-.16-.36-.31-.55-.45L86.91,1.15l.35.29a4.81,4.81,0,0,1,.65.7c.09.12.18.24.26.37A5.55,5.55,0,0,1,88.9,4.2l13.75,56.86A5.5,5.5,0,0,1,99.19,67.52Z" style="fill:url(#linear-gradient-2)"/></g></g></svg>